<svg width="32" height="32" viewBox="0 0 32 32" fill="none" xmlns="http://www.w3.org/2000/svg">
<path d="M22.6667 28C23.0203 28 23.3594 27.8595 23.6095 27.6095C23.8595 27.3594 24 27.0203 24 26.6666V19.5333C24 18.924 24.4213 18.408 24.9693 18.1453C26.104 17.604 27.0109 16.6794 27.5302 15.5345C28.0494 14.3896 28.1475 13.0981 27.8072 11.8879C27.4669 10.6777 26.7101 9.62665 25.6702 8.92017C24.6304 8.21369 23.3744 7.89723 22.124 8.02664C21.609 6.82959 20.7545 5.8097 19.6661 5.09309C18.5777 4.37648 17.3031 3.99457 16 3.99457C14.6969 3.99457 13.4223 4.37648 12.3339 5.09309C11.2455 5.8097 10.391 6.82959 9.87599 8.02664C8.6261 7.89814 7.37097 8.21505 6.3319 8.92149C5.29283 9.62794 4.53654 10.6786 4.19637 11.8881C3.8562 13.0977 3.954 14.3885 4.47253 15.533C4.99105 16.6775 5.897 17.6022 7.03065 18.144C7.57865 18.408 7.99999 18.924 7.99999 19.532V26.6666C7.99999 27.0203 8.14046 27.3594 8.39051 27.6095C8.64056 27.8595 8.9797 28 9.33332 28H22.6667Z" stroke="#FF6B35" stroke-width="2" stroke-linecap="round" stroke-linejoin="round"/>
<path d="M8 22.6667H24" stroke="#FF6B35" stroke-width="2" stroke-linecap="round" stroke-linejoin="round"/>
</svg>
