<svg width="334" height="390" viewBox="0 0 334 390" fill="none" xmlns="http://www.w3.org/2000/svg">
<path d="M336.081 322.09C341.324 322.09 346.352 319.705 350.06 315.461C353.767 311.216 355.85 305.46 355.85 299.457V178.375C355.85 168.032 362.097 159.274 370.222 154.815C387.046 145.628 400.493 129.932 408.192 110.499C415.891 91.0655 417.346 69.1434 412.3 48.6015C407.255 28.0596 396.033 10.2184 380.615 -1.77348C365.197 -13.7653 346.575 -19.1369 328.035 -16.9403C320.399 -37.2593 307.729 -54.5709 291.591 -66.7348C275.453 -78.8986 256.555 -85.3813 237.233 -85.3813C217.912 -85.3813 199.014 -78.8986 182.876 -66.7348C166.738 -54.5709 154.068 -37.2593 146.432 -16.9403C127.9 -19.1216 109.29 -13.7423 93.8838 -1.75103C78.4774 10.2403 67.2638 28.0736 62.2201 48.6047C57.1764 69.1359 58.6265 91.0464 66.3147 110.473C74.003 129.9 87.4356 145.596 104.244 154.793C112.37 159.274 118.617 168.032 118.617 178.353V299.457C118.617 305.46 120.7 311.216 124.407 315.461C128.115 319.705 133.143 322.09 138.386 322.09H336.081Z" stroke="white" stroke-width="2" stroke-linecap="round" stroke-linejoin="round"/>
<path d="M118.617 231.561H355.85" stroke="white" stroke-width="2" stroke-linecap="round" stroke-linejoin="round"/>
</svg>
